<?xml version="1.0" encoding="utf-8"?>
<svg version="1.1" xmlns:xlink="http://www.w3.org/1999/xlink" width="14px" height="17px" xmlns="http://www.w3.org/2000/svg">
  <g transform="matrix(1 0 0 1 -406 -237 )">
    <path d="M 13.944 11.8978264743151  C 13.944 14.3495525017123  10.4655632284483 16.8484748664384  7.05149426293104 16.8484748955479  C 3.15595404310345 16.8484748955479  0.70225288362069 14.9804931506849  0.138390814655173 11.5848401729452  C 0.102344827586208 11.2991780821918  -0.234942508620689 7.49117808219178  0.833563228448278 4.09304109589041  C 0.926252883620691 3.79744291267123  1.29443680172414 3.68566209075342  1.54933332327586 3.87196346061644  C 2.57664366810345 4.61965294863014  4.00818388793104 5.21084931506849  4.78832184913793 5.36982647431507  C 5.09728736637931 5.43192692123288  5.41140231896552 5.30772602739726  5.58648275862069 5.05684017294521  C 6.25075862068966 4.10297715924658  8.07880460775862 1.69596346061644  10.5016091853448 0.250264830479452  C 10.7101609094828 0.126063907534246  10.9624827586207 0.329753424657533  10.8800919439655 0.55331506849315  C 9.45112642672414 4.44577167979452  9.72919539224138 7.56818263869863  10.1411494353448 9.36661188184932  C 10.3291034482759 10.1863379092466  11.3461149525862 10.5241643835616  12.0078160818966 9.98016438356164  L 13.3312184008621 8.89961643835616  C 13.5732413793103 8.70089496746575  13.944 8.86732421061644  13.944 9.17285845719178  L 13.944 11.8978264743151  Z " fill-rule="nonzero" fill="#ffb432" stroke="none" transform="matrix(1 0 0 1 406 237 )" />
  </g>
</svg>