<?xml version="1.0" encoding="utf-8"?>
<svg version="1.1" xmlns:xlink="http://www.w3.org/1999/xlink" width="9px" height="3px" xmlns="http://www.w3.org/2000/svg">
  <g transform="matrix(1 0 0 1 -406 -245 )">
    <path d="M 8.932 1.9005714375  C 8.932 2.40342857142857  8.452 2.81485714285714  7.86533334375 2.81485714285714  C 7.2786666875 2.81485714285714  6.7986666875 2.40342857142857  6.79866665625 1.9005714375  L 6.79866665625 0.986285705357142  C 6.79866665625 0.483428571428572  7.27866665625 0.0719999999999997  7.86533334375 0.0719999999999997  C 8.45200003125 0.0719999999999997  8.932 0.483428571428572  8.932 0.986285705357142  L 8.932 1.9005714375  Z M 2.31866665625 1.9005714375  C 2.31866665625 2.40342857142857  1.83866665625 2.81485714285714  1.252 2.81485714285714  C 0.665333343750001 2.81485714285714  0.185333343750001 2.40342857142857  0.185333343750001 1.9005714375  L 0.185333343750001 0.986285705357142  C 0.185333343750001 0.483428571428572  0.665333343750001 0.0719999999999997  1.252 0.0719999999999997  C 1.83866665625 0.0719999999999997  2.31866665625 0.483428571428572  2.31866665625 0.986285705357142  L 2.31866665625 1.9005714375  Z " fill-rule="nonzero" fill="#ff5860" stroke="none" transform="matrix(1 0 0 1 406 245 )" />
  </g>
</svg>