<?xml version="1.0" encoding="utf-8"?>
<svg version="1.1" xmlns:xlink="http://www.w3.org/1999/xlink" width="20px" height="25px" xmlns="http://www.w3.org/2000/svg">
  <g transform="matrix(1 0 0 1 -403 -232 )">
    <path d="M 19.91503875 16.6876543113426  C 19.91503875 21.3419752893519  14.7057364244186 24.8185185185185  10.0496124127907 24.8185185185185  C 4.74604651162791 24.8185185185185  0.970542645348838 21.7617283854167  0.196589156976745 16.8407407407407  C 0.149457383720931 16.4851851851852  -0.84775191860465 8.63086420717592  3.35441860465116 3.66543208912037  C 3.49333334302326 3.50246912615741  3.67441860465116 3.37407407407407  3.88527130813954 3.32716050347222  C 4.41116279069768 3.2086419849537  4.89736433139535 3.5  5.06356590116279 3.95925925925926  C 5.6142635755814 5.51728394097222  6.32372093023256 6.26790124421296  6.81984497093023 6.62839505208333  C 6.83224808139535 6.63827158564815  6.8496124127907 6.63333333333333  6.85953488372093 6.62098764467593  C 7.8443410755814 5.04320986689815  10.5060465116279 1.89753084490741  16.72496125 0.216049392361112  C 17.0896124127907 0.117283969907408  17.4790697674419 0.233333333333334  17.7271317732558 0.514814814814816  C 17.9770613572687 0.796119859308961  18.04529850409 1.19408087477778  17.9032558139535 1.54197531828704  C 16.9407752034884 3.88765434027778  16.6629457267442 7.0061728587963  16.5910077616279 9.05061727430556  C 16.5910077616279 9.07530862268519  16.6182945930233 9.08765431134259  16.6356589244186 9.07283949652778  C 17.0623255813953 8.72222222222222  17.5931783139535 8.28518518518519  18.248062005814 7.74444444444445  C 18.4837209302326 7.54938272569445  18.7913178197674 7.44567902199074  19.0939534883721 7.5  C 19.5801550290698 7.58888888888889  19.91503875 8.00617282986111  19.91503875 8.47283949652778  L 19.91503875 16.6876543113426  Z M 7.14976744186047 8.89753087384259  C 6.9339534883721 8.86296296296296  5.28682171511628 8.56419754050926  3.96217055232558 6.30246912615741  C 3.95690722985049 6.29384349913098  3.94750326702959 6.28857705366339  3.93736434593023 6.28857705366339  C 3.92722542483087 6.28857705366339  3.91782146200997 6.29384349913099  3.91255813953489 6.30246912615741  C 1.41457363372093 10.6086419560185  2.15131781976744 16.4901234375  2.16124031976744 16.5567901331019  C 2.77891473837209 20.4827160590278  5.73085273255814 22.8432098958333  10.0496124127907 22.8432098668981  C 13.6936434302326 22.8432098668981  17.9305426453488 20.1543209780093  17.9305426453488 16.6876543113426  L 17.9305426453488 10.6308642071759  C 17.9305426453488 10.6061728587963  17.9007752034884 10.5962962962963  17.8834108430233 10.6111111111111  C 16.5289922383721 11.7271605034722  16.2337984302326 11.9740740740741  16.2313178197674 11.9790123553241  C 16.052160888479 12.1299046214187  15.8250704408973 12.2127044211967  15.5903834699553 12.2127044211967  C 15.0591229349918 12.2127044211967  14.6221194481873 11.7962042945072  14.5990697674419 11.267901244213  C 14.5891472965116 11.0506173032407  14.4155038662791 6.63333333333333  15.4300775290698 2.74197531828704  C 15.4350387790698 2.71975309606482  15.4151938081395 2.70246915509259  15.3928682267442 2.70987653356482  C 9.58821706395349 4.82592592592593  8.22883720930233 8.23086417824074  8.21643409883721 8.26790124421296  C 8.05190578445301 8.69969978163715  7.60933205356004 8.96094122238467  7.14976744186047 8.89753087384259  Z " fill-rule="nonzero" fill="#ff5860" stroke="none" transform="matrix(1 0 0 1 403 232 )" />
  </g>
</svg>