<?xml version="1.0" encoding="utf-8"?>
<svg version="1.1" xmlns:xlink="http://www.w3.org/1999/xlink" width="25px" height="23px" xmlns="http://www.w3.org/2000/svg">
  <g transform="matrix(1 0 0 1 -384 -170 )">
    <path d="M 24.4716807522124 22.6147326117789  C 24.2639349004425 22.8223419459135  23.9913834070796 22.9261890745192  23.7196808904867 22.9261890745192  C 23.4479783738938 22.9261890745192  23.1754551714602 22.8223419459135  22.9677093196903 22.61467596875  L 14.9858926714602 14.6359575576923  C 14.6584969579646 14.308687765625  14.5803905973451 13.8086599975962  14.7914475110619 13.3975147620192  L 14.9235774059735 13.1417017403846  C 14.9426795077434 13.1034839507212  14.9651209070796 13.0661148389423  14.9892037057522 13.0312350901442  C 15.7736063882743 11.8766960180288  16.1874001659292 10.526145859375  16.1874001659292 9.125751328125  C 16.1874001659292 5.285868625  13.0622977599558 2.16199643389423  9.22096587389381 2.16199643389423  C 5.38045470132744 2.16199643389423  2.25535226769912 5.28589687740385  2.25535226769912 9.125751328125  C 2.25535226769912 12.9647853810096  5.38045467367257 16.0886858521635  9.22096587389381 16.0886858521635  C 9.80925373340708 16.0886858521635  10.2845421183628 16.5646117764423  10.2845421183628 17.1518530288462  C 10.2845421183628 17.73909428125  9.80925373340708 18.2150202055289  9.22096587389381 18.2150202055289  C 4.20718998893806 18.2150202055289  0.128199806415932 14.1375988377404  0.128199806415932 9.12575135576924  C 0.128199806415932 4.11390384615385  4.20719001659292 0.0356621358173134  9.22096587389381 0.0356621358173134  C 14.2355907356195 0.0356621358173134  18.3145526272124 4.11393215384616  18.3145526272124 9.12575135576924  C 18.3145526272124 10.7503889206731  17.8866374446903 12.3252387283654  17.0714733130531 13.7140066766827  L 24.4716807522124 21.1113396021635  C 24.8871441924779 21.5266432487981  24.8871441924779 22.1994289651442  24.4716807522124 22.6147326117789  Z " fill-rule="nonzero" fill="#aaaaaa" stroke="none" transform="matrix(1 0 0 1 384 170 )" />
  </g>
</svg>