<?xml version="1.0" encoding="utf-8"?>
<svg version="1.1" xmlns:xlink="http://www.w3.org/1999/xlink" width="18px" height="20px" xmlns="http://www.w3.org/2000/svg">
  <g transform="matrix(1 0 0 1 -1372 -16 )">
    <path d="M 11.0134539473684 10.9809765625  L 6.98542105263158 10.9809765625  C 3.21526973684211 10.9809765625  0.146861842105263 13.97015625  0.146861842105263 17.646796875  L 0.146861842105263 18.0387890625  C 0.146861842105263 20  3.165 20  6.98542105263158 20  L 11.0134539473684 20  C 14.6830657894737 20  17.8514802631579 20  17.8522697368421 18.03880859375  L 17.8522697368421 17.6458203125  C 17.8522697368421 13.9708984375  14.7835855263158 10.97998046875  11.0134539473684 10.97998046875  Z M 8.79809210526316 0  C 5.80411184210526 0  3.36907894736842 2.3743359375  3.36907894736842 5.293359375  C 3.36907894736842 8.2123828125  5.80308552631579 10.58724609375  8.79809210526316 10.58724609375  C 11.7930986842105 10.58724609375  14.2271052631579 8.21240234375  14.2271052631579 5.293359375  C 14.2271052631579 2.37431640625  11.7918552631579 0  8.79811184210526 0  Z " fill-rule="nonzero" fill="#ff6666" stroke="none" transform="matrix(1 0 0 1 1372 16 )" />
  </g>
</svg>