<?xml version="1.0" encoding="utf-8"?>
<svg version="1.1" xmlns:xlink="http://www.w3.org/1999/xlink" width="16px" height="20px" xmlns="http://www.w3.org/2000/svg">
  <g transform="matrix(1 0 0 1 -490 -419 )">
    <path d="M 9.16484210526316 18.1371428571429  L 8.76610526315789 14.6424489795918  C 9.12421052631579 14.4087755102041  9.35894736842105 14.0161224489796  9.35894736842105 13.5714285714286  C 9.35894736842105 12.855306122449  8.7501052631579 12.2744897959184  7.99894736842105 12.2744897959184  C 7.24778947368421 12.2744897959184  6.63894736842105 12.8551020408163  6.63894736842105 13.5714285714286  C 6.63894736842105 14.0516326530612  6.91284210526316 14.4710204081633  7.31978947368421 14.6951020408163  L 6.92631578947368 18.1371428571429  L 8.04568421052632 18.0997959183673  L 9.16484210526316 18.1371428571429  Z M 2.15978947368421 5.5165306122449  C 2.15978947368421 2.51387755102041  4.67073684210526 0.0806122448979591  7.768 0.0806122448979591  L 8.31031578947369 0.0806122448979591  C 11.4069473684211 0.0806122448979591  13.9185263157895 2.51448979591837  13.9185263157895 5.51673469387755  L 13.9185263157895 9.19142857142857  C 15.1829473684211 9.26  15.9983157894737 9.32265306122449  16 9.32265306122449  L 16 19.6463265306122  C 15.9983157894737 19.6463265306122  11.8926315789474 19.9195918367347  7.95094736842105 19.9195918367347  C 3.89347368421053 19.9195918367347  0 19.6463265306122  0 19.6463265306122  L 0 9.32244897959184  C 0 9.32244897959184  0.851368421052632 9.25632653061225  2.15978947368421 9.18530612244898  L 2.15978947368421 5.5165306122449  Z M 8.03936842105263 1.25183673469388  C 5.49936842105263 1.37632653061224  3.47957894736842 3.41183673469388  3.47957894736842 5.90612244897959  L 3.47957894736842 9.12081632653061  C 4.804 9.06244897959184  6.37368421052632 9.01428571428571  7.94252631578947 9.01428571428571  C 9.58631578947368 9.01428571428571  11.2294736842105 9.06571428571429  12.5987368421053 9.12632653061225  L 12.5987368421053 5.90612244897959  C 12.5987368421053 3.41265306122449  10.5787368421053 1.37632653061224  8.03936842105263 1.25183673469388  Z " fill-rule="nonzero" fill="#ff6666" stroke="none" transform="matrix(1 0 0 1 490 419 )" />
  </g>
</svg>