<?xml version="1.0" encoding="utf-8"?>
<svg version="1.1" xmlns:xlink="http://www.w3.org/1999/xlink" width="20px" height="20px" xmlns="http://www.w3.org/2000/svg">
  <g transform="matrix(1 0 0 1 -1327 -22 )">
    <path d="M 10.0759764370079 8.49359708984373  C 8.3009249776522 8.49359708984373  6.86196145669291 9.92131870829552  6.86196145669291 11.682502578125  C 6.86196145669291 13.4436864479544  8.3009249776522 14.8714080664062  10.0759764370079 14.8714080664062  C 11.8510278963635 14.8714080664062  13.2899914173228 13.4436864479544  13.2899914173228 11.682502578125  C 13.2899914173228 9.92131870829552  11.8510278963635 8.49359708984373  10.0759764370079 8.49359708984373  Z M 11.579576496063 0.586497949218749  C 11.6187036417323 0.622546445312499  11.6564333858268 0.659981425781249  11.6913683267717 0.698802890624999  L 19.4050042913386 7.07661386718749  C 19.7871764127205 7.48175220312138  19.9990956019775 8.01633741981329  19.9975009645669 8.57124001953123  L 19.9975009645669 17.8093605664062  C 19.9975012595649 17.8098227278056  19.9975014070639 17.8102848892892  19.9975014070639 17.8107470507813  C 19.9975014070639 19.0198380681569  19.0096216647338 20  17.7910102456466 20  L 2.36234047244094 20  C 1.14295729746205 19.9999999892131  0.154451929133858 19.0192173103306  0.154451929133858 17.8093605664062  L 0.154451929133858 8.56985353515623  C 0.153536618040868 8.01575010837937  0.364823634002648 7.48199517297184  0.745551200787402 7.07661386718749  L 8.45918716535433 0.698802890624998  C 8.87689123310493 0.253159055036689  9.46261223319612 0  10.0759758805072 0  C 10.633856840141 0  11.1710562197818 0.209541970696098  11.579576496063 0.586497949218749  Z " fill-rule="nonzero" fill="#ff6666" stroke="none" transform="matrix(1 0 0 1 1327 22 )" />
  </g>
</svg>