<?xml version="1.0" encoding="utf-8"?>
<svg version="1.1" xmlns:xlink="http://www.w3.org/1999/xlink" width="15px" height="21px" xmlns="http://www.w3.org/2000/svg">
  <g transform="matrix(1 0 0 1 -490 -356 )">
    <path d="M 0 2.96043591210938  C 0.0544403600543474 1.39145881054688  1.33018504076087 0.107635807617187  2.88941694293478 0.107635807617188  L 12.1106247758152 0.107635807617188  C 13.6698983763587 0.107635807617188  14.9455596195652 1.39143783105469  15 2.96043591210938  L 15 18.0395640878906  C 14.9455596195652 19.6086880869141  13.6698983763587 20.8923431923828  12.1106247758152 20.8923432128906  L 2.88941694293478 20.8923432128906  C 1.33018504076087 20.8923432128906  0.0544195312499995 19.6086881074219  0 18.0395640878906  L 0 2.96043591210938  Z M 8.69843376358696 18.0819972333984  C 8.69843376358696 17.4160360869141  8.16176217391304 16.8761781972656  7.50008341711957 16.8761781972656  C 6.83832124320652 16.8761781972656  6.30162880434783 17.4160360869141  6.30162880434783 18.0819972333984  C 6.30162880434783 18.748000359375  6.83830039402174 19.2878582490234  7.50008341711957 19.2878582490234  C 8.16176217391304 19.2878582490234  8.69843376358696 18.748000359375  8.69843376358696 18.0819972333984  Z M 12.4708598233696 3.02003536816406  L 2.52916104619565 3.02003536816406  C 1.79603174592391 3.02003536816406  1.19623092391304 3.62348002734375  1.19623090353261 4.36119138574219  L 1.19623090353261 14.5845575039063  C 1.19623090353261 15.3222478828125  1.79603172554348 15.9258813984375  2.52916104619565 15.9258813984375  L 12.4708598233696 15.9258813984375  C 13.2039891236413 15.9258813984375  13.803852513587 15.3222478623047  13.803852513587 14.5845575039062  L 13.803852513587 4.36119138574219  C 13.803852513587 3.62348002734375  13.2039891236413 3.02003536816406  12.4708598233696 3.02003536816406  Z " fill-rule="nonzero" fill="#ff6666" stroke="none" transform="matrix(1 0 0 1 490 356 )" />
  </g>
</svg>