<?xml version="1.0" encoding="utf-8"?>
<svg version="1.1" xmlns:xlink="http://www.w3.org/1999/xlink" width="21px" height="20px" xmlns="http://www.w3.org/2000/svg">
  <g transform="matrix(1 0 0 1 -487 -428 )">
    <path d="M 17.995925765625 13.8323961190476  L 19.4933265234375 13.8323961190476  L 19.4933265234375 9.26888902380952  L 20.99072728125 9.26888902380952  L 20.99072728125 6.22655097619048  L 19.4933265234375 6.22655097619048  L 19.4933265234375 4.70538195238095  L 17.995925765625 4.70538195238095  L 17.995925765625 3.18421292857143  L 16.4985250078125 3.18421292857143  L 16.4985250078125 1.66304390476191  L 15.00112425 1.66304390476191  L 15.0011242265625 0.1418505  L 12.006298734375 0.1418505  L 12.006298734375 1.66301952380952  L 10.5088979765625 1.66301952380952  L 10.5088979765625 3.18418854761905  L 9.01149721875 3.18418854761905  L 9.01149721875 4.70535757142857  L 7.5140964609375 4.70535757142857  L 7.5140964375 0.1418505  L 0 0.1418505  L 0 10.7900336904762  L 4.519294921875 10.7900336904762  L 4.519294921875 12.3112027142857  L 0.027092625 12.3112027142857  L 0.027092625 15.3535407619048  L 4.519294921875 15.3535407857143  L 4.519294921875 16.8747098095238  L 0.027092625 16.8747098095238  L 0.027092625 20  L 20.99072728125 20  L 20.99072728125 16.8747341666667  L 17.995925765625 16.8747341666667  L 17.995925765625 13.8323961190476  Z M 10.5088979765625 4.70535757142857  L 12.006298734375 4.70535757142857  L 12.006298734375 3.18418854761905  L 15.00110025 3.18418854761905  L 15.00110025 4.70535757142857  L 16.4985010078125 4.70535757142857  L 16.4985010078125 6.2265265952381  L 10.5088979765625 6.2265265952381  L 10.5088979765625 4.70535757142857  Z M 10.508897953125 10.790058047619  L 12.006298734375 10.790058047619  L 12.006298734375 13.8323960952381  L 10.5088979765625 13.8323960952381  L 10.5088979765625 10.790058047619  L 7.5140964375 10.790058047619  L 7.5140964375 9.26888902380952  L 10.508897953125 9.26888902380952  L 10.508897953125 10.790058047619  Z M 3.0218941640625 7.74772  L 3.0218941640625 3.18418854761905  L 4.519294921875 3.18418854761905  L 4.519294921875 7.74769564285714  L 3.0218941640625 7.74769564285714  Z M 9.0114971953125 16.8747341666667  L 7.5140964375 16.8747341666667  L 7.5140964375 13.8323961190476  L 9.0114971953125 13.8323961190476  L 9.0114971953125 16.8747341666667  Z M 15.00110025 16.8747341666667  L 12.006298734375 16.8747341666667  L 12.006298734375 15.3535651428571  L 15.00110025 15.3535651428571  L 15.00110025 16.8747341666667  Z M 16.4985010078125 13.8323961190476  L 15.00110025 13.8323961190476  L 15.00110025 10.790058047619  L 13.5036994921875 10.790058047619  L 13.5036994921875 9.26888902380952  L 16.4985010078125 9.26888902380952  L 16.4985010078125 13.8323961190476  Z M 17.995925765625 13.8323961190476  L 19.4933265234375 13.8323961190476  L 19.4933265234375 9.26888902380952  L 20.99072728125 9.26888902380952  L 20.99072728125 6.22655097619048  L 19.4933265234375 6.22655097619048  L 19.4933265234375 4.70538195238095  L 17.995925765625 4.70538195238095  L 17.995925765625 3.18421292857143  L 16.4985250078125 3.18421292857143  L 16.4985250078125 1.66304390476191  L 15.00112425 1.66304390476191  L 15.0011242265625 0.1418505  L 12.006298734375 0.1418505  L 12.006298734375 1.66301952380952  L 10.5088979765625 1.66301952380952  L 10.5088979765625 3.18418854761905  L 9.01149721875 3.18418854761905  L 9.01149721875 4.70535757142857  L 7.5140964609375 4.70535757142857  L 7.5140964375 0.1418505  L 0 0.1418505  L 0 10.7900336904762  L 4.519294921875 10.7900336904762  L 4.519294921875 12.3112027142857  L 0.027092625 12.3112027142857  L 0.027092625 15.3535407619048  L 4.519294921875 15.3535407857143  L 4.519294921875 16.8747098095238  L 0.027092625 16.8747098095238  L 0.027092625 20  L 20.99072728125 20  L 20.99072728125 16.8747341666667  L 17.995925765625 16.8747341666667  L 17.995925765625 13.8323961190476  Z M 10.5088979765625 4.70535757142857  L 12.006298734375 4.70535757142857  L 12.006298734375 3.18418854761905  L 15.00110025 3.18418854761905  L 15.00110025 4.70535757142857  L 16.4985010078125 4.70535757142857  L 16.4985010078125 6.2265265952381  L 10.5088979765625 6.2265265952381  L 10.5088979765625 4.70535757142857  Z M 10.508897953125 10.790058047619  L 12.006298734375 10.790058047619  L 12.006298734375 13.8323960952381  L 10.5088979765625 13.8323960952381  L 10.5088979765625 10.790058047619  L 7.5140964375 10.790058047619  L 7.5140964375 9.26888902380952  L 10.508897953125 9.26888902380952  L 10.508897953125 10.790058047619  Z M 3.0218941640625 7.74772  L 3.0218941640625 3.18418854761905  L 4.519294921875 3.18418854761905  L 4.519294921875 7.74769564285714  L 3.0218941640625 7.74769564285714  Z M 9.0114971953125 16.8747341666667  L 7.5140964375 16.8747341666667  L 7.5140964375 13.8323961190476  L 9.0114971953125 13.8323961190476  L 9.0114971953125 16.8747341666667  Z M 15.00110025 16.8747341666667  L 12.006298734375 16.8747341666667  L 12.006298734375 15.3535651428571  L 15.00110025 15.3535651428571  L 15.00110025 16.8747341666667  Z M 16.4985010078125 13.8323961190476  L 15.00110025 13.8323961190476  L 15.00110025 10.790058047619  L 13.5036994921875 10.790058047619  L 13.5036994921875 9.26888902380952  L 16.4985010078125 9.26888902380952  L 16.4985010078125 13.8323961190476  Z " fill-rule="nonzero" fill="#ff6666" stroke="none" transform="matrix(1 0 0 1 487 428 )" />
  </g>
</svg>