<?xml version="1.0" encoding="utf-8"?>
<svg version="1.1" xmlns:xlink="http://www.w3.org/1999/xlink" width="21px" height="21px" xmlns="http://www.w3.org/2000/svg">
  <g transform="matrix(1 0 0 1 -1327 -22 )">
    <path d="M 10.5797752588583 8.91827694433592  C 8.71597122653481 8.91827694433592  7.20505952952756 10.4173846437103  7.20505952952756 12.2666277070312  C 7.20505952952756 14.1158707703521  8.71597122653481 15.6149784697265  10.5797752588583 15.6149784697265  C 12.4435792911817 15.6149784697265  13.954490988189 14.1158707703521  13.954490988189 12.2666277070312  C 13.954490988189 10.4173846437103  12.4435792911817 8.91827694433592  10.5797752588583 8.91827694433592  Z M 12.1585553208661 0.615822846679686  C 12.1996388238189 0.653673767578124  12.2392550551181 0.692980497070311  12.2759367431102 0.733743035156249  L 20.3752545059055 7.43044456054686  C 20.7765352333566 7.85583981327745  20.9990503820764 8.41715429080396  20.9973760127953 8.9998020205078  L 20.9973760127953 18.6998285947265  C 20.9973763225432 18.7003138641959  20.9973764774171 18.7007991337537  20.9973764774171 18.7012844033203  C 20.9973764774171 19.9708299715647  19.9601027479705 21  18.6805607579289 21  L 2.48045749606299 21  C 1.20010516233516 20.9999999886738  0.162174525590551 19.9701781758471  0.162174525590551 18.6998285947265  L 0.162174525590551 8.99834621191405  C 0.161213448942911 8.41653761379834  0.38306481570278 7.85609493162043  0.782828760826772 7.43044456054686  L 8.88214652362205 0.733743035156248  C 9.32073579476018 0.265817007788523  9.93574284485592 0  10.5797746745326 0  C 11.1655496821481 0  11.7296090307709 0.220019069230903  12.1585553208661 0.615822846679686  Z " fill-rule="nonzero" fill="#ff6666" stroke="none" transform="matrix(1 0 0 1 1327 22 )" />
  </g>
</svg>