<?xml version="1.0" encoding="utf-8"?>
<svg version="1.1" xmlns:xlink="http://www.w3.org/1999/xlink" width="18px" height="21px" xmlns="http://www.w3.org/2000/svg">
  <g transform="matrix(1 0 0 1 -490 -319 )">
    <path d="M 11.0134539473684 11.5289794921875  L 11.0134539473684 11.530025390625  L 6.98542105263158 11.530025390625  C 3.21526973684211 11.530025390625  0.146861842105263 14.6686640625  0.146861842105263 18.52913671875  L 0.146861842105263 18.940728515625  C 0.146861842105263 21  3.165 21  6.98542105263158 21  L 11.0134539473684 21  C 14.6830657894737 21  17.8514802631579 21  17.8522697368421 18.9407490234375  L 17.8522697368421 18.528111328125  C 17.8522697368421 14.669443359375  14.7835855263158 11.5289794921875  11.0134539473684 11.5289794921875  Z M 8.79809210526316 0  C 5.80411184210526 0  3.36907894736842 2.493052734375  3.36907894736842 5.55802734375  C 3.36907894736842 8.623001953125  5.80308552631579 11.1166083984375  8.79809210526316 11.1166083984375  C 11.7930986842105 11.1166083984375  14.2271052631579 8.6230224609375  14.2271052631579 5.55802734375  C 14.2271052631579 2.4930322265625  11.7918552631579 0  8.79811184210526 0  Z " fill-rule="nonzero" fill="#ff6666" stroke="none" transform="matrix(1 0 0 1 490 319 )" />
  </g>
</svg>