<?xml version="1.0" encoding="utf-8"?>
<svg version="1.1" xmlns:xlink="http://www.w3.org/1999/xlink" width="16px" height="21px" xmlns="http://www.w3.org/2000/svg">
  <g transform="matrix(1 0 0 1 -490 -389 )">
    <path d="M 9.16484210526316 19.044  L 8.76610526315789 15.3745714285714  C 9.12421052631579 15.1292142857143  9.35894736842105 14.7169285714286  9.35894736842105 14.25  C 9.35894736842105 13.4980714285714  8.7501052631579 12.8882142857143  7.99894736842105 12.8882142857143  C 7.24778947368421 12.8882142857143  6.63894736842105 13.4978571428571  6.63894736842105 14.25  C 6.63894736842105 14.7542142857143  6.91284210526316 15.1945714285714  7.31978947368421 15.4298571428571  L 6.92631578947368 19.044  L 8.04568421052632 19.0047857142857  L 9.16484210526316 19.044  Z M 2.15978947368421 5.79235714285714  C 2.15978947368421 2.63957142857143  4.67073684210526 0.084642857142857  7.768 0.084642857142857  L 8.31031578947369 0.084642857142857  C 11.4069473684211 0.084642857142857  13.9185263157895 2.64021428571429  13.9185263157895 5.79257142857143  L 13.9185263157895 9.651  C 15.1829473684211 9.723  15.9983157894737 9.78878571428571  16 9.78878571428571  L 16 20.6286428571429  C 15.9983157894737 20.6286428571429  11.8926315789474 20.9155714285714  7.95094736842105 20.9155714285714  C 3.89347368421053 20.9155714285714  0 20.6286428571429  0 20.6286428571429  L 0 9.78857142857143  C 0 9.78857142857143  0.851368421052632 9.71914285714286  2.15978947368421 9.64457142857143  L 2.15978947368421 5.79235714285714  Z M 8.03936842105263 1.31442857142857  C 5.49936842105263 1.44514285714286  3.47957894736842 3.58242857142857  3.47957894736842 6.20142857142857  L 3.47957894736842 9.57685714285714  C 4.804 9.51557142857143  6.37368421052632 9.465  7.94252631578947 9.465  C 9.58631578947368 9.465  11.2294736842105 9.519  12.5987368421053 9.58264285714286  L 12.5987368421053 6.20142857142857  C 12.5987368421053 3.58328571428571  10.5787368421053 1.44514285714286  8.03936842105263 1.31442857142857  Z " fill-rule="nonzero" fill="#ff6666" stroke="none" transform="matrix(1 0 0 1 490 389 )" />
  </g>
</svg>