<?xml version="1.0" encoding="utf-8"?>
<svg version="1.1" xmlns:xlink="http://www.w3.org/1999/xlink" width="16px" height="12px" xmlns="http://www.w3.org/2000/svg">
  <g transform="matrix(1 0 0 1 -490 -469 )">
    <path d="M 0.142857148444445 1.42731340772727  C 0.142857148444445 0.731867311818182  0.704278906222222 0.175218230454546  1.40569894533333 0.175218230454546  L 14.5941102344444 0.175218230454546  C 15.2955302928889 0.175218230454546  15.8569520508889 0.73186731159091  15.8569520508889 1.42731340772727  L 15.8569520508889 10.6112927956818  C 15.8492568775445 11.3052267775116  15.2970321718747 11.8636331199899  14.6184753102412 11.8636331199899  C 14.6103530288836 11.8636331199899  14.6022309440139 11.8635514069492  14.5941102344444 11.8633879927273  L 1.40569894533333 11.8633879927273  C 1.39757824227939 11.8635514066869  1.38945616392861 11.8636331195964  1.38133388909024 11.8636331195964  C 0.702777027520153 11.8636331195964  0.150552321877138 11.3052267772185  0.142857148444445 10.6112927954545  L 0.142857148444445 1.42731340772727  Z M 11.0970098437778 2.78606315931818  L 11.0970098437778 2.78898518295455  L 7.32276996111111 6.720593295  L 4.708515996 4.52906147477273  L 3.76424173844444 5.63067146227273  L 7.43134007822222 8.70319909227273  L 12.1569969726667 3.77955757045454  L 11.0970098437778 2.78606315931818  Z " fill-rule="nonzero" fill="#ff6666" stroke="none" transform="matrix(1 0 0 1 490 469 )" />
  </g>
</svg>